<svg width="31" height="43" viewBox="0 0 31 43" fill="none" xmlns="http://www.w3.org/2000/svg">
<path d="M17.1426 30.7832C17.0885 30.8713 14.4793 32.2189 15.1123 33.3623C15.7455 34.5057 20.27 33.9452 20.8799 36.2744C21.4876 38.597 19.1877 41.8292 19.1738 41.8486L14.0557 42.7637C14.0921 42.7329 18.2957 39.1808 18.6865 37.6895C19.0783 36.192 14.95 35.1932 14.3809 33.9453C13.8144 32.7023 17.1161 30.7985 17.1426 30.7832Z" fill="#292B38"/>
<path d="M19.1543 34.0703C23.6434 33.8414 25.2539 34.9822 24.5361 40.7676L20.6367 41.4326C21.7597 39.2146 22.8033 35.2122 19.1543 34.0703Z" fill="#292B38"/>
<path d="M17.4678 36.8574C17.7932 37.1175 17.8531 37.3568 17.8359 37.6182C17.752 38.8892 14.7001 39.5213 10.9814 39.1191L10.8057 39.1035C7.07581 38.8226 5.13932 37.7838 4.15918 36.9541C4.4842 37.2236 5.50838 37.6997 6.09277 37.9385C7.25842 38.497 8.90374 38.8488 10.8057 38.9375C12.6833 39.1057 14.4277 38.9784 15.6787 38.7119C16.3051 38.5785 16.806 38.4007 17.1523 38.1924C17.503 37.9814 17.6626 37.7598 17.6807 37.5488C17.6987 37.338 17.7111 37.1898 17.4678 36.8574Z" fill="#292B38"/>
<path d="M9.05371 35.5518C6.71675 35.537 4.98397 35.9217 4.87598 36.1914C4.74791 36.5246 7.47795 37.5709 10.6426 37.8545C13.808 38.138 16.3312 37.5609 16.4209 37.2178C16.4959 36.9145 14.5106 36.1349 11.8711 35.7607L12.3955 34.917C15.4031 35.3947 17.5899 36.3901 17.5098 37.3379C17.4153 38.4429 14.2749 39.0639 10.4971 38.7256C6.71948 38.3871 3.7333 37.2172 3.82715 36.1123C3.90012 35.2674 5.75358 34.707 8.31152 34.6406L9.05371 35.5518Z" fill="#292B38"/>
<path d="M11.7803 35.8584C13.9738 36.2744 15.6898 36.6015 16.249 37.1895C15.1116 36.5239 13.6581 36.3365 11.6182 36.0254L11.7803 35.8584Z" fill="#292B38"/>
<path d="M9.17188 35.667L9.34277 35.7754C7.03823 35.781 5.65611 35.9978 5.28027 36.4404L5.03711 36.2744C5.53554 35.9149 7.03055 35.6256 9.17188 35.667Z" fill="#292B38"/>
<path fill-rule="evenodd" clip-rule="evenodd" d="M10.3994 36.0254L0 4.40918L14.3809 6.82227L30.2236 0L10.3994 36.0254ZM10.3994 27.2891L12.999 9.23535L3.89941 7.7373L10.3994 27.2891ZM15.3555 8.98535L12.918 26.457L25.1045 4.65918L15.3555 8.98535Z" fill="#292B38"/>
<path d="M24.5361 27.7051L24.373 29.7852L23.3984 29.4521L22.9111 33.6953L22.5859 33.5293L23.0732 29.2861L22.1797 28.9531L21.7734 27.7881L22.748 27.04L24.5361 27.7051Z" fill="#292B38"/>
</svg>
