<svg width="19" height="19" viewBox="0 0 19 19" fill="none" xmlns="http://www.w3.org/2000/svg">
<path fill-rule="evenodd" clip-rule="evenodd" d="M12.0425 10.4601C12.2044 10.0932 12.2949 9.68483 12.2949 9.50108C12.2949 7.90833 11.0574 6.61694 9.53118 6.61694C8.00501 6.61694 6.76758 7.90833 6.76758 9.50108C6.76758 11.0938 8.14941 12.1387 9.53118 12.1387C10.4151 12.1387 11.2018 11.7064 11.7065 11.0332C11.8387 10.8572 11.9521 10.665 12.0425 10.4601ZM9.53118 10.6967C9.87664 10.6967 10.1925 10.5643 10.4353 10.3453C10.7282 10.0813 10.8571 9.69046 10.8571 9.50108C10.8571 8.7047 10.295 8.05898 9.53118 8.05898C8.76745 8.05898 8.14283 8.70362 8.14283 9.49999C8.14283 10.0499 8.76745 10.6967 9.53118 10.6967Z" fill="black"/>
<path fill-rule="evenodd" clip-rule="evenodd" d="M0.740977 9.68488C0.751773 9.69892 0.730181 9.67151 0.740977 9.68488C0.656508 9.56932 0.658634 9.43191 0.741357 9.31499C0.747417 9.30644 0.753592 9.29755 0.759848 9.28846C3.24415 5.66149 6.32489 3.73218 9.50953 3.73218C12.6909 3.73218 15.7689 5.65629 18.2505 9.27597C18.2976 9.34464 18.3213 9.41521 18.3213 9.4997C18.3213 9.58832 18.2937 9.66282 18.2442 9.73489C15.7632 13.3477 12.688 15.2679 9.50953 15.2679C6.3168 15.2679 3.22798 13.3294 0.740977 9.68488ZM2.67285 9.06066C2.46861 9.31458 2.46861 9.68474 2.67284 9.93873C4.80023 12.5837 7.1956 13.8259 9.50953 13.8259C11.8235 13.8259 14.2189 12.5837 16.3463 9.93873C16.5505 9.68474 16.5505 9.31458 16.3463 9.06066C14.2189 6.41576 11.8235 5.17423 9.50953 5.17423C7.1956 5.17423 4.80023 6.41576 2.67285 9.06066Z" fill="black"/>
</svg>
