<svg width="19" height="19" viewBox="0 0 19 19" fill="none" xmlns="http://www.w3.org/2000/svg">
<path fill-rule="evenodd" clip-rule="evenodd" d="M15.3986 1.05196C15.139 0.900014 14.8069 0.990189 14.657 1.25336L12.9968 4.16902C11.8657 3.63958 10.6948 3.36887 9.50953 3.36887C6.32489 3.36887 3.24415 5.32442 0.759848 9.00069L0.749995 9.01514L0.741377 9.02763C0.658627 9.14611 0.656514 9.28542 0.740963 9.40254C2.57415 12.1255 4.73432 13.9089 7.02202 14.6584L5.69945 16.9794C5.54952 17.2426 5.63849 17.5791 5.89813 17.7311L6.13321 17.8686C6.39285 18.0205 6.72485 17.9304 6.87477 17.6672L15.8323 1.94116C15.9823 1.67799 15.8933 1.34148 15.6336 1.18953L15.3986 1.05196ZM12.2766 5.43341C11.356 5.02809 10.4264 4.83053 9.50953 4.83053C7.1956 4.83053 4.80022 6.08895 2.67284 8.76984C2.46862 9.02722 2.46862 9.4024 2.67284 9.65979C4.26751 11.6694 6.01273 12.8801 7.76139 13.3604L8.67577 11.7551C7.63124 11.4219 6.76751 10.4926 6.76751 9.21627C6.76751 7.60182 8.00493 6.29291 9.53111 6.29291C10.2356 6.29291 10.8785 6.5718 11.3667 7.03087L12.2766 5.43341ZM10.6121 8.35578C10.377 7.99138 9.99057 7.75456 9.53111 7.75456C8.76738 7.75456 8.14275 8.40796 8.14275 9.21519C8.14275 9.74868 8.71492 10.3721 9.43367 10.4245L10.6121 8.35578Z" fill="black"/>
<path d="M9.96631 15.0481C12.9817 14.8708 15.8823 12.9395 18.2443 9.4532C18.2937 9.38018 18.3214 9.30466 18.3214 9.21482C18.3214 9.12918 18.2976 9.05766 18.2505 8.98804C17.3428 7.64596 16.3552 6.53388 15.312 5.66309L14.5933 6.92498C15.1923 7.44076 15.7788 8.05466 16.3463 8.76981C16.5506 9.02719 16.5506 9.40237 16.3463 9.65976C14.6351 11.8163 12.7505 13.0528 10.8743 13.4541L9.96631 15.0481Z" fill="black"/>
</svg>
