<svg width="20" height="20" viewBox="0 0 20 20" fill="none" xmlns="http://www.w3.org/2000/svg">
<g clip-path="url(#clip0_129_7131)">
<path d="M20 2.9891H5.25L4.8279 0.533936H1.09058C0.487319 0.533936 0 1.02216 0 1.62497V2.71555H2.99004L4.91395 13.9062C4.95652 14.1526 5.19339 14.3523 5.44384 14.3523H18.3637C18.9669 14.3523 19.4552 13.8645 19.4552 13.2604V12.1707H6.8288L6.56295 10.6245H16.5457C17.7505 10.6245 18.8881 9.66075 19.087 8.47325L20 2.9891Z" fill="#292B38"/>
<path d="M8.81796 19.4665C9.85975 19.4665 10.7043 18.622 10.7043 17.5802C10.7043 16.5384 9.85975 15.6938 8.81796 15.6938C7.77618 15.6938 6.93164 16.5384 6.93164 17.5802C6.93164 18.622 7.77618 19.4665 8.81796 19.4665Z" fill="#292B38"/>
<path d="M13.4792 17.5796C13.4792 18.6209 14.323 19.4655 15.3642 19.4655C16.4063 19.4655 17.2519 18.6209 17.2519 17.5796C17.2519 16.5384 16.4063 15.6929 15.3642 15.6929C14.323 15.6929 13.4792 16.5389 13.4792 17.5796Z" fill="#292B38"/>
</g>
<defs>
<clipPath id="clip0_129_7131">
<rect width="20" height="20" fill="white"/>
</clipPath>
</defs>
</svg>
