<svg width="24" height="29" viewBox="0 0 24 29" fill="none" xmlns="http://www.w3.org/2000/svg">
<path d="M20.6121 27.5933C20.5639 28.1072 20.1326 28.5 19.6165 28.5H3.93773C3.42161 28.5 2.99027 28.1072 2.9421 27.5933L0.5046 1.59334C0.449608 1.00676 0.911081 0.5 1.50023 0.5H22.054C22.6431 0.5 23.1046 1.00676 23.0496 1.59334L20.6121 27.5933Z" stroke="#292B38"/>
<path d="M2.55011 9.51467C1.88996 9.38787 1.28586 9.92654 1.34861 10.5958L2.9421 27.5931C2.99027 28.107 3.42161 28.4997 3.93773 28.4997H19.6165C20.1326 28.4997 20.5639 28.107 20.6121 27.5931L22.2062 10.5892C22.2688 9.92186 21.6682 9.38379 21.0096 9.50798C14.0016 10.8294 9.55554 10.8602 2.55011 9.51467Z" fill="#292B38" stroke="#292B38"/>
</svg>
